# xmcd
#
# Track frame offsets:
# 150
# 11314
# 25193
# 35759
# 45834
# 58501
# 68722
# 78644
# 88421
# 97960
# 108497
# 119999
# 132533
# 145144
# 154841
# 167191
#
# Disc length: 2385 seconds
#
#
# Revision: 1
# Processed by: cddbd v1.5.1PL0 Copyright (c) Steve Scherf et al.
# Submitted via: FreeRIP 2.90 
#
DISCID=dc094f10
DTITLE=Chuck Berry - Blues
DYEAR=1900
DGENRE=Blues
TTITLE0=House of Blue Lights
TTITLE1=Wee Wee Hours
TTITLE2=Deep Feeling
TTITLE3=I Just want tomake love to you
TTITLE4=How You've changed
TTITLE5=Down the road apiece
TTITLE6=Worried life blues
TTITLE7=Confessin' the blues
TTITLE8=Still got the blues
TTITLE9=Driftin' blues
TTITLE10=Run around
TTITLE11=Route 66
TTITLE12=Sweet sixteen
TTITLE13=All aboard
TTITLE14=The things I used to do
TTITLE15=St. Louis Blues
EXTD=
EXTT0=
EXTT1=
EXTT2=
EXTT3=
EXTT4=
EXTT5=
EXTT6=
EXTT7=
EXTT8=
EXTT9=
EXTT10=
EXTT11=
EXTT12=
EXTT13=
EXTT14=
EXTT15=
PLAYORDER=
